<svg width="120" height="120" fill="none" xmlns="http://www.w3.org/2000/svg"><path d="M79.925 59.945H80l-.032.055.032.055h-.075L40.933 120H0l39.035-60L0 0h40.933l38.992 59.945z" fill="#1E4096"/><path d="M95.452 99.99H38.154a1.718 1.718 0 01-1.235-.518 1.774 1.774 0 01-.512-1.255V63.125a1.8 1.8 0 01.512-1.255 1.74 1.74 0 011.235-.518h57.298a1.717 1.717 0 011.235.518 1.774 1.774 0 01.512 1.255v35.092a1.799 1.799 0 01-.512 1.255 1.74 1.74 0 01-1.235.518zm-55.555-3.549h53.799v-31.54h-53.8v31.54z" fill="#32FFFF"/><path d="M66.801 86.076a1.73 1.73 0 01-1.023-.334L37.124 64.563c-.3-.22-.523-.53-.638-.887a1.8 1.8 0 010-1.1c.113-.356.336-.667.635-.888.3-.22.66-.337 1.03-.336h57.301c.37-.001.73.116 1.03.337.298.22.521.53.635.888a1.8 1.8 0 010 1.099 1.77 1.77 0 01-.639.887l-28.65 21.175c-.3.22-.658.338-1.027.338zm-23.28-21.175l23.28 17.208 23.277-17.208H43.521z" fill="#32FFFF"/><path d="M38.153 99.99c-.36 0-.712-.115-1.007-.327a1.774 1.774 0 01-.637-.858 1.805 1.805 0 01-.034-1.075c.099-.353.302-.667.583-.898l22.54-18.429a1.723 1.723 0 012.452.27 1.795 1.795 0 01-.265 2.493l-22.54 18.443c-.31.25-.695.385-1.092.38zM95.452 99.99a1.713 1.713 0 01-1.098-.381l-22.54-18.433a1.766 1.766 0 01-.64-1.19 1.802 1.802 0 01.375-1.303 1.75 1.75 0 011.171-.651 1.716 1.716 0 011.281.381l22.537 18.43c.282.23.487.542.587.896.1.353.089.73-.031 1.076a1.77 1.77 0 01-.638.86 1.722 1.722 0 01-1.01.325l.006-.01z" fill="#32FFFF"/><path d="M31.736 83.986c-.093 0-.186-.007-.279-.02-4.869-.828-9.255-3.483-12.29-7.442a20.275 20.275 0 01-4.103-13.935c.397-5.004 2.627-9.674 6.248-13.086a19.527 19.527 0 0113.306-5.34 22.873 22.873 0 014.028-14.608 22.277 22.277 0 0110.75-8.265 21.883 21.883 0 0113.472-.431A22.213 22.213 0 0174.11 28.42a19.387 19.387 0 0116.655-1.18 19.665 19.665 0 017.118 4.82 20.091 20.091 0 014.437 7.435 22.17 22.17 0 0112.566 7.702 22.835 22.835 0 015.11 13.986 22.86 22.86 0 01-4.572 14.178c-3.058 4.063-7.381 6.952-12.262 8.193a1.72 1.72 0 01-1.36-.165 1.792 1.792 0 01-.606-2.488 1.731 1.731 0 011.127-.792 18.73 18.73 0 0010.475-7.1 19.288 19.288 0 003.698-12.236 19.24 19.24 0 00-4.746-11.857 18.664 18.664 0 00-11.052-6.13 1.737 1.737 0 01-.89-.43 1.783 1.783 0 01-.52-.851 16.556 16.556 0 00-3.686-6.75 16.19 16.19 0 00-6.305-4.3 15.951 15.951 0 00-7.54-.91 16.037 16.037 0 00-7.118 2.685c-.38.26-.847.356-1.297.269-.45-.087-.85-.35-1.11-.734a18.734 18.734 0 00-10.05-7.513 18.417 18.417 0 00-12.46.58 18.814 18.814 0 00-9.332 8.416 19.302 19.302 0 00-2.056 12.511 1.806 1.806 0 01-.455 1.51 1.72 1.72 0 01-1.459.544 15.92 15.92 0 00-6.743.666 16.11 16.11 0 00-5.883 3.416 16.438 16.438 0 00-3.992 5.566 16.687 16.687 0 00-1.4 6.74 16.577 16.577 0 003.843 10.702 16.072 16.072 0 009.768 5.577c.436.068.83.3 1.105.652a1.794 1.794 0 01-.19 2.409 1.727 1.727 0 01-1.191.465v-.02z" fill="#fff"/><path d="M100.106 57.8h-4.364a1.733 1.733 0 01-1.186-.546 1.792 1.792 0 01-.485-1.228c0-.458.174-.898.485-1.229.311-.33.736-.526 1.186-.546h4.364c.45.02.875.216 1.186.547a1.793 1.793 0 010 2.456c-.311.33-.736.526-1.186.546zM86.532 57.8h-9.21a1.734 1.734 0 01-1.185-.546 1.792 1.792 0 01-.485-1.228c0-.458.174-.898.485-1.229.311-.33.736-.526 1.186-.546h9.21a1.72 1.72 0 011.283.492 1.778 1.778 0 01.539 1.283 1.801 1.801 0 01-.539 1.282 1.743 1.743 0 01-1.284.492zM68.114 57.8h-4.349a1.72 1.72 0 01-1.283-.491 1.778 1.778 0 01-.539-1.283 1.801 1.801 0 01.539-1.283 1.743 1.743 0 011.283-.492h4.362a1.72 1.72 0 011.283.492 1.777 1.777 0 01.539 1.283 1.803 1.803 0 01-.539 1.282 1.742 1.742 0 01-1.283.492h-.013z" fill="#fff"/></svg>