<svg width="120" height="120" fill="none" xmlns="http://www.w3.org/2000/svg"><path d="M79.925 59.945H80l-.032.055.032.055h-.075L40.933 120H0l39.035-60L0 0h40.933l38.992 59.945z" fill="#1E4096"/><path d="M45.763 80.684c-.074.005-.15.005-.224 0a19.298 19.298 0 01-7.675-2.744 19.463 19.463 0 01-5.881-5.676 19.635 19.635 0 01-3.052-7.61 19.7 19.7 0 01.318-8.2 19.61 19.61 0 013.63-7.348 19.429 19.429 0 016.301-5.198 19.263 19.263 0 0115.903-.824 19.664 19.664 0 012.21-7.036 14 14 0 01.376-.631l.257-.428c.11-.187.217-.373.324-.55a19.424 19.424 0 019.073-7.313 19.256 19.256 0 0111.593-.776 19.37 19.37 0 019.953 6.041 19.62 19.62 0 014.743 10.69 19.263 19.263 0 0114.951.407 19.402 19.402 0 016.204 4.472 19.566 19.566 0 014.015 6.536 19.706 19.706 0 011.203 7.59 19.66 19.66 0 01-1.794 7.472 19.523 19.523 0 01-4.513 6.197 19.374 19.374 0 01-6.535 3.964 1.712 1.712 0 01-1.898-.442 1.73 1.73 0 01-.353-.592 1.742 1.742 0 01.498-1.897c.175-.153.378-.267.598-.338a15.934 15.934 0 005.597-3.444 16.098 16.098 0 003.751-5.421 16.188 16.188 0 00-.157-12.935 16.073 16.073 0 00-3.879-5.328 15.936 15.936 0 00-5.679-3.306 15.838 15.838 0 00-12.775 1.256 1.713 1.713 0 01-2.347-.673 1.746 1.746 0 01-.216-.873v-.272a16.162 16.162 0 00-3.085-9.615 15.956 15.956 0 00-8.168-5.86 15.835 15.835 0 00-10.024.209 15.97 15.97 0 00-7.92 6.197c-.082.117-.147.235-.215.353l-.324.53c-.088.14-.179.284-.26.434a16.15 16.15 0 00-1.927 7.677l.017.347a1.741 1.741 0 01-.834 1.524 1.707 1.707 0 01-1.726.022 15.842 15.842 0 00-13.577-.969 15.95 15.95 0 00-5.794 3.913 16.107 16.107 0 00-3.584 6.03 16.2 16.2 0 001.646 13.617 16.019 16.019 0 004.916 4.985 15.877 15.877 0 006.556 2.396c.431.06.824.282 1.1.621a1.745 1.745 0 01-.15 2.359 1.715 1.715 0 01-1.167.476v-.016z" fill="#32FFFF"/><path d="M32.099 69.89c-.14 0-.28-.017-.416-.053a19.076 19.076 0 01-7.075-3.446 19.564 19.564 0 01-5.146-6.044 20 20 0 01-2.363-7.64 20.105 20.105 0 01.81-7.97 19.808 19.808 0 013.849-6.979 19.304 19.304 0 016.25-4.833 18.88 18.88 0 0115.338-.513 20.042 20.042 0 012.195-7.089c.116-.217.245-.428.374-.636l.258-.434c.106-.185.212-.37.322-.544a19.373 19.373 0 017.918-6.899 18.877 18.877 0 0110.272-1.68 19.026 19.026 0 019.628 4.03 19.66 19.66 0 016.172 8.561 1.786 1.786 0 01-.328 1.773 1.706 1.706 0 01-.77.506 1.675 1.675 0 01-.916.027 15.411 15.411 0 00-9.544.562 15.804 15.804 0 00-7.465 6.106c-.081.118-.145.237-.213.355l-.322.534c-.087.142-.178.287-.258.438a16.46 16.46 0 00-1.914 7.735l.016.35c.007.307-.066.611-.211.881s-.358.495-.617.654a1.677 1.677 0 01-1.714.022 15.534 15.534 0 00-9.33-1.996 15.65 15.65 0 00-8.757 3.845 16.233 16.233 0 00-5.008 8.29c-.796 3.225-.6 6.622.56 9.728a1.786 1.786 0 01-.196 1.618c-.158.234-.37.424-.617.555-.246.13-.52.198-.798.196l.016-.01zm4.279-35.34A15.624 15.624 0 0026.5 38.1a16.246 16.246 0 00-5.554 9.072c-.792 3.58-.371 7.33 1.194 10.633 1.566 3.304 4.183 5.965 7.422 7.549a19.61 19.61 0 01-.322-3.574 20.037 20.037 0 012.219-9.19 19.548 19.548 0 016.158-7.068 18.996 18.996 0 018.674-3.312c3.112-.366 6.264.05 9.183 1.211a20.017 20.017 0 012.194-7.089c.116-.214.245-.425.374-.636l.255-.431c.109-.188.215-.376.322-.553a19.228 19.228 0 017.486-6.702 18.734 18.734 0 019.768-1.94 15.982 15.982 0 00-5.635-5.504 15.56 15.56 0 00-7.522-2.087 15.543 15.543 0 00-7.584 1.838 15.95 15.95 0 00-5.806 5.316c-.077.115-.145.237-.216.359l-.322.527c-.09.145-.184.293-.264.445a16.555 16.555 0 00-1.895 7.754l.02.35c.006.307-.067.611-.213.881a1.73 1.73 0 01-.617.653 1.68 1.68 0 01-1.716.024 15.567 15.567 0 00-7.726-2.076z" fill="#32FFFF"/><path d="M74.3 97.8c-3.362 0-6.648-.988-9.443-2.838a16.867 16.867 0 01-6.26-7.553 16.672 16.672 0 01-.965-9.723 16.778 16.778 0 014.653-8.616 17.053 17.053 0 018.703-4.604 17.16 17.16 0 019.822.958 16.964 16.964 0 017.628 6.198 16.71 16.71 0 012.864 9.35c0 .373-.122.737-.347 1.037-.225.3-.541.521-.903.63l3.054 3.02 3.164-3.135a1.745 1.745 0 01-.705-.64 1.72 1.72 0 01-.26-.913 20.566 20.566 0 00-2.009-8.9 20.77 20.77 0 00-5.671-7.187 1.743 1.743 0 01-.634-1.175 1.724 1.724 0 01.392-1.274 1.755 1.755 0 011.187-.627 1.775 1.775 0 011.287.388 24.234 24.234 0 016.228 7.6 24 24 0 012.676 9.422h1.568c.348 0 .688.103.977.295.289.191.514.463.647.782a1.737 1.737 0 01-.38 1.898l-7.223 7.153a1.773 1.773 0 01-2.49 0l-7.223-7.154a1.738 1.738 0 01-.38-1.897c.132-.319.358-.59.647-.782.289-.192.629-.294.976-.295h1.788a13.29 13.29 0 00-3.728-7.583 13.525 13.525 0 00-7.576-3.856c-2.88-.44-5.827.056-8.398 1.413a13.401 13.401 0 00-5.865 6.117 13.22 13.22 0 00-.988 8.376 13.313 13.313 0 004.283 7.29 13.584 13.584 0 0016.114 1.267 1.775 1.775 0 012.434.545 1.738 1.738 0 01-.051 1.94 1.76 1.76 0 01-.5.47A17.056 17.056 0 0174.3 97.8zM56.395 69.9c-.33 0-.655-.099-.937-.284a1.852 1.852 0 01-.655-.764 1.988 1.988 0 01.175-1.979 25.483 25.483 0 016.42-6.31c.196-.147.419-.25.654-.303.235-.054.478-.056.714-.007.236.05.46.149.66.292.199.143.368.328.498.543.13.215.217.455.258.706.04.252.031.51-.025.758s-.16.481-.303.686a1.823 1.823 0 01-.533.505 21.932 21.932 0 00-5.502 5.406c-.166.234-.38.424-.628.555-.247.13-.52.197-.796.196zm13.47-9.16a1.728 1.728 0 01-1.184-.488 1.977 1.977 0 01-.254-2.503 1.78 1.78 0 011.058-.744 23.694 23.694 0 018.746-.356c.453.087.856.356 1.126.752.27.395.385.885.322 1.369a1.92 1.92 0 01-.662 1.224 1.712 1.712 0 01-1.276.398 20.28 20.28 0 00-7.497.302 1.745 1.745 0 01-.38.032v.015z" fill="#fff"/><path d="M74.135 105c-6.366-.005-12.47-2.46-16.969-6.826-4.5-4.365-7.027-10.284-7.027-16.455 0-.761.04-1.532.114-2.287a1.66 1.66 0 01.64-1.075 1.761 1.761 0 012.366.218c.29.323.44.743.42 1.171a19.47 19.47 0 002.886 12.305 20.311 20.311 0 008.088 7.34 21.1 21.1 0 0010.841 2.203 20.968 20.968 0 0010.447-3.572 1.765 1.765 0 011.286-.279c.45.077.85.323 1.112.685.263.362.366.81.288 1.246a1.667 1.667 0 01-.706 1.079A24.353 24.353 0 0174.135 105z" fill="#fff"/></svg>