<svg width="125" height="120" fill="none" xmlns="http://www.w3.org/2000/svg"><path d="M79.925 59.945H80l-.032.055.032.055h-.075L40.933 120H0l39.035-60L0 0h40.933l38.992 59.945z" fill="#1E4096" /><path d="M58.564 104a43 43 0 01-19.113-4.433 43.428 43.428 0 01-15.222-12.484l-1.404-1.816 2.084-.93c9.102-4.06 21.052-6.307 33.655-6.307 12.604 0 24.55 2.24 33.649 6.306l2.087.93-1.404 1.817a43.423 43.423 0 01-15.22 12.484A43 43 0 0158.564 104zM28.535 86.701a40.02 40.02 0 0013.55 10.122 39.67 39.67 0 0016.477 3.586 39.67 39.67 0 0016.478-3.586A40.02 40.02 0 0088.59 86.7c-8.354-3.285-18.907-5.075-30.026-5.075s-21.675 1.79-30.029 5.075z" fill="#32FFFF"/><path d="M60.34 78.033h-3.555v24.123h3.555V78.033zM60.34 17.801h-3.555v31.603h3.555V17.801zM50.143 58.207h-33.38v3.59h33.38v-3.59z" fill="#32FFFF"/><path d="M58.564 104C34.534 104 15 84.262 15 60.017a44.263 44.263 0 018.602-26.274 43.569 43.569 0 0122.442-15.887 43.173 43.173 0 0127.398.788A43.635 43.635 0 0194.95 35.797l3.686 5.646-5.982-3.045a13.613 13.613 0 00-6.266-1.505 13.806 13.806 0 00-9.219 3.537 14.057 14.057 0 00-4.564 8.825l-.259 2.203-2.077-.714a13.762 13.762 0 00-11.622 1.233 13.944 13.944 0 00-4.353 4.145 14.098 14.098 0 00-2.222 5.61 14.151 14.151 0 00.323 6.032 14.067 14.067 0 002.807 5.335 13.901 13.901 0 004.77 3.648 13.775 13.775 0 005.847 1.283h32.616l-1.394 2.639a43.77 43.77 0 01-16.03 17.059A43.221 43.221 0 0158.563 104zm0-84.406a39.731 39.731 0 00-19.837 5.31A40.21 40.21 0 0024.104 39.44a40.7 40.7 0 00-5.566 19.942 40.717 40.717 0 004.956 20.106 40.245 40.245 0 0014.173 14.984 39.758 39.758 0 0019.666 5.923 39.717 39.717 0 0019.988-4.696 40.177 40.177 0 0015.056-14.08H65.82c-2.312.033-4.607-.399-6.752-1.27a17.436 17.436 0 01-5.743-3.802 17.626 17.626 0 01-3.845-5.745 17.763 17.763 0 010-13.595 17.626 17.626 0 013.845-5.745 17.436 17.436 0 015.743-3.802 17.302 17.302 0 016.752-1.27c1.219 0 2.434.132 3.625.392a17.612 17.612 0 016.158-9.713 17.32 17.32 0 0110.792-3.776c.778 0 1.555.05 2.326.152A39.948 39.948 0 0075.134 23.21a39.595 39.595 0 00-16.57-3.62v.004z" fill="#32FFFF"/><path d="M123.221 65.8c-.472 0-.923-.19-1.256-.526a1.803 1.803 0 01-.521-1.268 14.112 14.112 0 00-2.347-7.787 13.92 13.92 0 00-6.235-5.16 13.769 13.769 0 00-8.023-.795 13.851 13.851 0 00-7.11 3.836 1.769 1.769 0 01-2.514 0 1.803 1.803 0 010-2.538 17.395 17.395 0 018.934-4.822 17.292 17.292 0 0110.082 1.002 17.483 17.483 0 017.831 6.49A17.741 17.741 0 01125 64.02a1.805 1.805 0 01-.526 1.26c-.334.333-.784.52-1.253.52zM76.878 54.614a1.76 1.76 0 01-1.257-.527 13.806 13.806 0 00-4.494-3.042 13.698 13.698 0 00-5.308-1.066 1.772 1.772 0 01-1.208-.552 1.806 1.806 0 010-2.485c.317-.334.75-.532 1.208-.552a17.188 17.188 0 016.68 1.332 17.322 17.322 0 015.656 3.827 1.813 1.813 0 01.384 1.956 1.793 1.793 0 01-.654.806 1.767 1.767 0 01-.987.303h-.02z" fill="#fff"/><path d="M58.564 104a43.22 43.22 0 01-11.87-1.668l-.589-.166-.362-.497c-6.608-9.094-10.556-24.671-10.556-41.665a102.761 102.761 0 011.388-16.97l.304-1.817 1.797.365a3.282 3.282 0 002.83-.753 3.358 3.358 0 00.574-4.364 3.303 3.303 0 00-1.896-1.369l-1.78-.484.543-1.776c1.786-5.866 4.075-10.745 6.8-14.494l.361-.497.59-.17a43.332 43.332 0 0123.736 0l.587.17.361.497c3.395 4.666 6.166 11.246 8.02 19.024l.291 1.212-1.025.697a13.945 13.945 0 00-4.108 4.316 14.093 14.093 0 00-1.948 5.654H70l.276 1.489a13.763 13.763 0 00-11.604 1.25 13.943 13.943 0 00-4.344 4.143 14.096 14.096 0 00-2.218 5.602 14.15 14.15 0 00.32 6.024 14.064 14.064 0 002.796 5.331 13.902 13.902 0 004.757 3.651c1.83.854 3.821 1.296 5.837 1.295H80.4l-.446 2.162c-1.833 8.86-4.795 16.287-8.568 21.477l-.362.497-.587.166A43.243 43.243 0 0158.564 104zm-10.308-4.957a39.724 39.724 0 0020.613 0c3.016-4.327 5.449-10.302 7.121-17.424H65.82c-2.312.033-4.607-.399-6.752-1.27a17.435 17.435 0 01-5.743-3.802 17.627 17.627 0 01-3.845-5.745 17.763 17.763 0 010-13.596 17.627 17.627 0 013.845-5.744 17.435 17.435 0 015.743-3.802 17.303 17.303 0 016.752-1.27c1.22 0 2.436.132 3.629.392a17.61 17.61 0 016.22-9.737c-1.676-6.533-3.998-12.058-6.793-16.084a39.73 39.73 0 00-20.613 0c-2.078 2.994-3.937 6.898-5.429 11.398a6.9 6.9 0 012.817 3.244 6.98 6.98 0 01.365 4.297 6.93 6.93 0 01-2.227 3.682 6.819 6.819 0 01-3.954 1.633 99.634 99.634 0 00-1.086 14.792c-.006 15.699 3.63 30.571 9.507 39.036z" fill="#32FFFF"/><path d="M58.564 41.974c-4.85.01-9.694-.33-14.497-1.015l-1.803-.264.305-1.816c.036-.187.056-.376.06-.565.001-.816-.294-1.604-.83-2.215a3.28 3.28 0 00-4.355-.53 3.337 3.337 0 00-1.329 1.953l-.432 1.797-1.766-.488a63.324 63.324 0 01-9.008-3.153l-2.084-.94 1.404-1.817a43.647 43.647 0 0115.233-12.457 43.222 43.222 0 0119.1-4.453c6.62 0 13.152 1.523 19.101 4.453A43.647 43.647 0 0192.896 32.92l1.408 1.817-2.088.93c-.985.44-2.01.856-3.09 1.259l-.415.159-.44-.061a13.454 13.454 0 00-5.542.345c-1.805.5-3.487 1.37-4.943 2.558l-.335.277-.432.081a98.523 98.523 0 01-18.455 1.688zm-12.399-4.37c9.9 1.255 19.932 1 29.758-.759a17.104 17.104 0 0110.472-3.552c.632.002 1.263.042 1.89.118l.298-.115A40.02 40.02 0 0075.035 23.18a39.67 39.67 0 00-16.474-3.585 39.67 39.67 0 00-16.474 3.585 40.021 40.021 0 00-13.549 10.117 62.13 62.13 0 004.792 1.628 6.885 6.885 0 013.139-2.931 6.8 6.8 0 014.247-.486 6.845 6.845 0 013.708 2.149 6.957 6.957 0 011.728 3.947h.013z" fill="#32FFFF"/><path d="M107.554 81.62H65.819c-2.311.032-4.606-.4-6.751-1.27a17.434 17.434 0 01-5.743-3.802 17.627 17.627 0 01-3.845-5.745 17.763 17.763 0 010-13.596 17.627 17.627 0 013.845-5.745 17.436 17.436 0 015.743-3.802 17.304 17.304 0 016.751-1.27c1.22 0 2.435.132 3.626.392a17.631 17.631 0 016.19-9.735 17.34 17.34 0 0110.836-3.759 17.342 17.342 0 0110.809 3.839 17.635 17.635 0 016.119 9.78 17.125 17.125 0 014.162-.517 17.372 17.372 0 0112.182 5.244 17.705 17.705 0 015.025 12.37c0 4.63-1.805 9.074-5.025 12.37a17.372 17.372 0 01-12.182 5.246h-.007zM65.819 49.98a13.83 13.83 0 00-9.684 4.183 14.097 14.097 0 00-3.993 9.842c0 3.682 1.434 7.217 3.993 9.84a13.83 13.83 0 009.684 4.185h41.735a13.78 13.78 0 005.911-1.31c1.852-.869 3.49-2.14 4.8-3.721a14.078 14.078 0 002.776-5.43c.519-1.993.597-4.077.227-6.105a14.092 14.092 0 00-2.365-5.624 13.941 13.941 0 00-4.509-4.075 13.775 13.775 0 00-11.783-.852 1.764 1.764 0 01-1.564-.148 1.796 1.796 0 01-.839-1.34 14.065 14.065 0 00-4.492-8.907 13.814 13.814 0 00-9.226-3.623 13.811 13.811 0 00-9.272 3.503 14.063 14.063 0 00-4.606 8.847 1.807 1.807 0 01-.82 1.31 1.769 1.769 0 01-1.526.179 13.758 13.758 0 00-4.447-.755z" fill="#fff"/><path d="M39.319 45.233a6.824 6.824 0 01-3.818-1.168 6.922 6.922 0 01-2.531-3.112 6.997 6.997 0 01-.393-4.007 6.957 6.957 0 011.88-3.552 6.85 6.85 0 013.517-1.9 6.81 6.81 0 013.97.395 6.884 6.884 0 013.083 2.554 6.983 6.983 0 01-.855 8.755 6.844 6.844 0 01-4.853 2.035zm0-10.279c-.656 0-1.297.195-1.843.563a3.34 3.34 0 00-1.222 1.501 3.377 3.377 0 00.718 3.648 3.286 3.286 0 003.613.725 3.322 3.322 0 001.488-1.234 3.368 3.368 0 00-.414-4.223 3.299 3.299 0 00-2.34-.98z" fill="#32FFFF"/></svg>