<svg width="120" height="120" fill="none" xmlns="http://www.w3.org/2000/svg"><path d="M79.925 59.945H80l-.032.055.032.055h-.075L40.933 120H0l39.035-60L0 0h40.933l38.992 59.945z" fill="#1E4096"/><path d="M42.796 72.626c-.203 0-.404-.044-.592-.13a1.541 1.541 0 01-.501-.371 1.738 1.738 0 01-.335-.557 1.882 1.882 0 01-.118-.657v-4.294c.017-.442.188-.86.475-1.166.288-.306.67-.477 1.07-.477.397 0 .78.17 1.068.477.288.306.458.724.475 1.166v4.294c0 .455-.162.891-.452 1.213-.289.321-.681.502-1.09.502zM42.796 63.443a1.43 1.43 0 01-.591-.127 1.54 1.54 0 01-.501-.364 1.703 1.703 0 01-.335-.547 1.819 1.819 0 01-.117-.644v-4.21c-.01-.228.024-.455.097-.668.074-.213.186-.407.33-.572.144-.164.317-.295.509-.384a1.432 1.432 0 011.212 0c.192.089.365.22.51.384.144.165.256.36.33.572.073.213.106.44.097.667v4.227a1.763 1.763 0 01-.457 1.18 1.478 1.478 0 01-1.084.486zM92.204 72.626c-.409 0-.801-.18-1.09-.502a1.817 1.817 0 01-.452-1.213v-4.294c.017-.442.187-.86.475-1.166.287-.306.67-.477 1.069-.477.398 0 .781.17 1.069.477.287.306.458.724.475 1.166v4.294c0 .226-.04.449-.118.657a1.741 1.741 0 01-.335.557c-.144.16-.314.285-.501.371-.188.086-.389.13-.592.13zM92.204 63.443c-.408 0-.8-.177-1.09-.492a1.765 1.765 0 01-.45-1.19v-4.21c-.01-.228.023-.455.097-.668.073-.213.185-.407.33-.572.144-.164.317-.295.508-.384a1.432 1.432 0 011.213 0c.192.089.365.22.509.384.144.165.256.36.33.572.073.213.106.44.097.667v4.227a1.762 1.762 0 01-.457 1.18c-.29.313-.68.487-1.087.486z" fill="#fff"/><path d="M99.45 77.983h-7.004c-.453 0-.889-.178-1.21-.495a1.675 1.675 0 01-.5-1.193c0-.447.18-.876.5-1.192.321-.317.757-.495 1.21-.495h7.004a17.346 17.346 0 006.936-1.388 17.141 17.141 0 005.776-4.034 16.866 16.866 0 003.632-5.992 16.694 16.694 0 00-1.177-13.61 16.966 16.966 0 00-4.607-5.3 17.25 17.25 0 00-6.385-3.011 17.376 17.376 0 00-7.075-.21 1.734 1.734 0 01-1.52-.494 1.682 1.682 0 01-.442-1.518c.475-2.2.482-4.473.02-6.676a16.175 16.175 0 00-2.696-6.123 16.43 16.43 0 00-4.961-4.541 16.666 16.666 0 00-6.392-2.197 16.735 16.735 0 00-6.748.516 16.59 16.59 0 00-5.972 3.144 16.323 16.323 0 00-4.19 5.242 16.11 16.11 0 00-1.708 6.46c-.015.32-.122.63-.31.892a1.703 1.703 0 01-.747.588 1.73 1.73 0 01-1.806-.32 13.732 13.732 0 00-7.006-3.389 13.83 13.83 0 00-7.744.949 13.608 13.608 0 00-5.953 4.975 13.335 13.335 0 00-2.219 7.378v.213a1.665 1.665 0 01-.599 1.299 1.716 1.716 0 01-1.395.379c-.756-.132-1.522-.2-2.29-.207a13.773 13.773 0 00-9.67 3.95 13.395 13.395 0 00-4.006 9.538c0 3.577 1.441 7.007 4.006 9.537a13.773 13.773 0 009.67 3.95H42.18c.453 0 .888.178 1.21.495.32.316.5.745.5 1.192 0 .448-.18.877-.5 1.193-.322.317-.757.495-1.21.495H31.862a17.213 17.213 0 01-11.937-5.02A16.744 16.744 0 0115 61.123c0-4.433 1.77-8.686 4.925-11.842a17.213 17.213 0 0111.937-5.02c.322 0 .622 0 .938.033a16.697 16.697 0 012.962-7.959 17.01 17.01 0 016.518-5.526 17.277 17.277 0 0116.614.874c.999-4.768 3.756-9 7.737-11.879a20.14 20.14 0 0113.814-3.702c4.91.496 9.46 2.77 12.768 6.384a19.51 19.51 0 015.138 13.178c0 .602-.029 1.202-.087 1.802.4-.026.79-.038 1.176-.038a20.706 20.706 0 0114.538 5.939A20.136 20.136 0 01120 57.705a20.136 20.136 0 01-6.022 14.338 20.706 20.706 0 01-14.538 5.94h.01z" fill="#fff"/><path d="M80.935 104H53.292a5.118 5.118 0 01-3.6-1.482 5.039 5.039 0 01-1.493-3.574V73.856a5.043 5.043 0 011.493-3.573 5.12 5.12 0 013.6-1.483h27.643a5.12 5.12 0 013.6 1.483 5.043 5.043 0 011.494 3.573v25.088c0 1.341-.537 2.626-1.493 3.574a5.117 5.117 0 01-3.6 1.482zM53.292 72.189c-.45 0-.882.177-1.2.493a1.68 1.68 0 00-.499 1.193v25.088c.001.447.18.875.5 1.191.318.315.75.492 1.2.492h27.642c.45 0 .882-.177 1.2-.492.32-.316.499-.744.5-1.19v-25.09a1.675 1.675 0 00-.498-1.192 1.7 1.7 0 00-1.202-.493H53.292z" fill="#32FFFF"/><path d="M82.001 71.86H53.01c-.226.001-.45-.04-.66-.123a1.726 1.726 0 01-.558-.355 1.632 1.632 0 01-.373-.531 1.57 1.57 0 01-.131-.628v-5.87c0-4.097 1.708-8.027 4.748-10.924 3.041-2.897 7.165-4.525 11.465-4.525s8.424 1.628 11.465 4.525c3.04 2.897 4.748 6.827 4.748 10.924v5.87a1.6 1.6 0 01-.5 1.156c-.322.307-.757.48-1.212.482zm-27.27-3.277h25.548V64.34a11.667 11.667 0 00-.913-4.718 12.134 12.134 0 00-2.755-4.015 12.826 12.826 0 00-4.17-2.69 13.327 13.327 0 00-4.936-.945c-1.695 0-3.373.322-4.936.945a12.825 12.825 0 00-4.17 2.69 12.134 12.134 0 00-2.755 4.015c-.63 1.5-.94 3.103-.914 4.718v4.242z" fill="#32FFFF"/><path d="M75.094 71.86H59.903a1.666 1.666 0 01-1.668-1.67v-5.876a9.308 9.308 0 012.714-6.568 9.265 9.265 0 016.551-2.72 9.245 9.245 0 016.551 2.72 9.29 9.29 0 012.714 6.568v5.875a1.675 1.675 0 01-1.032 1.546c-.202.083-.42.126-.639.126zm-13.527-3.345H73.42v-4.201a5.95 5.95 0 00-1.736-4.201 5.92 5.92 0 00-8.382 0 5.95 5.95 0 00-1.736 4.2v4.202zM67.502 98.643a6.946 6.946 0 01-6.368-4.155 6.933 6.933 0 011.264-7.494v-11.12a1.717 1.717 0 011.72-1.718h6.764a1.72 1.72 0 011.72 1.719v11.119a6.936 6.936 0 01-5.1 11.65zM65.834 77.61v10.132a1.719 1.719 0 01-.602 1.295 3.507 3.507 0 002.266 6.186 3.512 3.512 0 003.297-2.302 3.506 3.506 0 00-1.03-3.884 1.72 1.72 0 01-.602-1.295V77.61h-3.33z" fill="#32FFFF"/><path d="M75.064 65.737h-7.408c-.22.012-.44-.03-.645-.12a1.618 1.618 0 01-.553-.41 1.95 1.95 0 01-.371-.63 2.201 2.201 0 010-1.502 1.95 1.95 0 01.371-.63c.16-.18.347-.318.553-.41.206-.09.425-.131.645-.12h7.408c.22-.011.44.03.645.12.206.092.394.23.553.41.159.178.285.392.372.63a2.202 2.202 0 010 1.502 1.95 1.95 0 01-.372.63 1.619 1.619 0 01-.553.41 1.412 1.412 0 01-.645.12z" fill="#32FFFF"/></svg>