<svg width="64" height="51" fill="none" xmlns="http://www.w3.org/2000/svg"><path d="M35.765 36.093a1.084 1.084 0 01-.758-.309 1.054 1.054 0 01-.315-.747v-3.171c.012-.273.13-.53.33-.719a1.081 1.081 0 011.484 0c.2.189.318.446.33.719v3.171a1.043 1.043 0 01-.313.747 1.072 1.072 0 01-.758.309zM35.765 43.25a1.086 1.086 0 01-.758-.308 1.053 1.053 0 01-.315-.747v-3.586c.012-.273.13-.53.33-.718a1.081 1.081 0 011.484 0c.2.188.318.446.33.718v3.586a1.043 1.043 0 01-.313.746 1.072 1.072 0 01-.758.31zM35.765 50a1.08 1.08 0 01-.758-.31 1.05 1.05 0 01-.315-.748v-3.17a1.045 1.045 0 01.297-.777 1.074 1.074 0 01.775-.326 1.088 1.088 0 01.775.326 1.056 1.056 0 01.297.778v3.17a1.043 1.043 0 01-.313.747 1.073 1.073 0 01-.758.31z" fill="#fff"/><path d="M42.435 32.923a1.084 1.084 0 01-.758-.31 1.057 1.057 0 01-.313-.747v-2.307a1.042 1.042 0 01.313-.748 1.073 1.073 0 01.758-.31h2.55l-5.884-5.762-5.886 5.758h2.55a1.084 1.084 0 01.758.31 1.057 1.057 0 01.313.748v2.306a1.045 1.045 0 01-.297.778 1.074 1.074 0 01-.775.326 1.087 1.087 0 01-.775-.326 1.056 1.056 0 01-.296-.778v-1.25h-4.078c-.212 0-.42-.063-.596-.18a1.061 1.061 0 01-.394-.475 1.044 1.044 0 01.234-1.152l8.487-8.308a1.076 1.076 0 011.509 0l8.486 8.308a1.042 1.042 0 01-.157 1.628 1.082 1.082 0 01-.596.178h-4.08v1.252a1.045 1.045 0 01-.313.75 1.074 1.074 0 01-.76.311zM42.435 50.331a1.084 1.084 0 01-.758-.31 1.056 1.056 0 01-.313-.748v-3.17a1.045 1.045 0 01.297-.777 1.073 1.073 0 01.775-.326 1.086 1.086 0 01.775.326 1.057 1.057 0 01.297.778v3.17c0 .28-.113.549-.314.747a1.08 1.08 0 01-.759.31zM42.435 43.25a1.086 1.086 0 01-.758-.31 1.056 1.056 0 01-.313-.747v-3.586a1.045 1.045 0 01.297-.778 1.075 1.075 0 01.775-.326 1.087 1.087 0 01.775.326 1.056 1.056 0 01.297.778v3.586c0 .28-.113.55-.314.748a1.08 1.08 0 01-.759.31z" fill="#fff"/><path d="M42.435 36.093c-.284 0-.556-.111-.757-.31a1.049 1.049 0 01-.314-.746v-3.171c.012-.273.13-.53.33-.719a1.082 1.082 0 011.484 0c.2.189.318.446.33.719v3.171a1.044 1.044 0 01-.314.747 1.071 1.071 0 01-.759.309z" fill="#fff"/><path d="M51.308 34.834H49.69a1.08 1.08 0 01-.728-.326 1.05 1.05 0 010-1.463 1.08 1.08 0 01.728-.325h1.617c1.403.02 2.797-.237 4.1-.753a10.61 10.61 0 003.486-2.255c1-.972 1.794-2.13 2.335-3.407a10.32 10.32 0 000-8.062 10.44 10.44 0 00-2.335-3.407c-1-.972-2.184-1.738-3.487-2.254a10.729 10.729 0 00-4.1-.754 10.598 10.598 0 00-4.938 1.21 1.084 1.084 0 01-1.34-.276 1.05 1.05 0 01-.21-.438 12.901 12.901 0 00-4.578-7.341A13.228 13.228 0 0032 2.11c-3 0-5.908 1.014-8.241 2.873a12.901 12.901 0 00-4.579 7.341 1.049 1.049 0 01-.594.738 1.085 1.085 0 01-.955-.024 10.598 10.598 0 00-4.939-1.21 10.729 10.729 0 00-4.1.754 10.609 10.609 0 00-3.486 2.254 10.44 10.44 0 00-2.335 3.407 10.32 10.32 0 000 8.062 10.439 10.439 0 002.335 3.407 10.61 10.61 0 003.487 2.255c1.302.516 2.696.772 4.1.753h.951a1.087 1.087 0 01.789.293 1.059 1.059 0 01.33.764 1.044 1.044 0 01-.33.764 1.074 1.074 0 01-.789.293h-.952a12.88 12.88 0 01-5.412-1.209 12.705 12.705 0 01-4.377-3.364 12.485 12.485 0 01-2.51-4.88 12.379 12.379 0 01-.164-5.469 12.462 12.462 0 012.211-5.018 12.676 12.676 0 014.167-3.614 12.894 12.894 0 0110.811-.664 15.048 15.048 0 015.52-7.675A15.403 15.403 0 0132 0c3.262 0 6.438 1.03 9.063 2.941a15.05 15.05 0 015.518 7.674 12.893 12.893 0 0110.812.665 12.675 12.675 0 014.166 3.614 12.46 12.46 0 012.212 5.018c.353 1.813.297 3.68-.165 5.47a12.486 12.486 0 01-2.509 4.88 12.706 12.706 0 01-4.377 3.363 12.88 12.88 0 01-5.412 1.209z" fill="#32FFFF"/><path d="M22.401 12.492c-.122 0-.243-.021-.357-.062a1.073 1.073 0 01-.611-.54 1.043 1.043 0 01-.042-.809c.78-2.16 2.218-4.03 4.117-5.352a11.385 11.385 0 016.493-2.037c.276.012.537.129.729.326a1.05 1.05 0 010 1.463 1.08 1.08 0 01-.729.325 9.217 9.217 0 00-5.255 1.647 9.014 9.014 0 00-3.334 4.33 1.06 1.06 0 01-.391.513 1.083 1.083 0 01-.62.196z" fill="#32FFFF"/><path d="M25.477 39.384a1.082 1.082 0 01-.759-.309 1.054 1.054 0 01-.314-.747v-3.172c.012-.272.13-.53.33-.718a1.081 1.081 0 011.484 0c.2.189.317.446.33.718v3.172a1.043 1.043 0 01-.314.747 1.073 1.073 0 01-.757.309zM25.477 32.634a1.086 1.086 0 01-.759-.308 1.052 1.052 0 01-.314-.748v-3.585c.012-.273.13-.53.33-.718a1.081 1.081 0 011.484 0c.2.188.317.445.33.718v3.585a1.043 1.043 0 01-.314.747 1.073 1.073 0 01-.757.31zM25.477 25.477a1.084 1.084 0 01-.759-.309 1.053 1.053 0 01-.314-.747v-3.172c.012-.272.13-.53.33-.718a1.08 1.08 0 011.484 0c.2.189.317.446.33.718v3.172a1.043 1.043 0 01-.314.746 1.071 1.071 0 01-.757.31z" fill="#fff"/><path d="M22.13 50a1.082 1.082 0 01-.755-.307l-8.487-8.31a1.052 1.052 0 01-.235-1.151c.081-.194.219-.359.395-.475.177-.116.384-.178.596-.178h4.078v-1.251a1.045 1.045 0 01.297-.778 1.072 1.072 0 01.775-.326 1.086 1.086 0 01.774.326 1.054 1.054 0 01.297.778v2.307c0 .28-.113.55-.314.748-.201.198-.474.31-.758.31h-2.546l5.884 5.76 5.883-5.76h-2.537c-.285 0-.558-.112-.76-.31a1.05 1.05 0 01-.313-.748v-2.307a1.045 1.045 0 01.297-.778 1.073 1.073 0 01.775-.326 1.086 1.086 0 01.774.326 1.055 1.055 0 01.297.778v1.25h4.078c.212 0 .42.063.596.179.177.116.314.282.395.475a1.042 1.042 0 01-.235 1.152l-8.487 8.31a1.07 1.07 0 01-.763.306zM18.794 25.477c-.284 0-.556-.112-.757-.31a1.048 1.048 0 01-.313-.746v-3.172c.012-.272.13-.53.33-.718a1.08 1.08 0 011.484 0c.2.189.317.446.33.718v3.172a1.044 1.044 0 01-.315.747 1.072 1.072 0 01-.759.309zM18.794 32.634c-.284 0-.556-.11-.757-.309a1.048 1.048 0 01-.313-.747v-3.585c.012-.273.13-.53.33-.718a1.081 1.081 0 011.484 0c.2.188.317.445.33.718v3.585a1.043 1.043 0 01-.315.748 1.074 1.074 0 01-.759.308z" fill="#fff"/><path d="M18.794 39.384c-.284 0-.556-.111-.757-.31a1.049 1.049 0 01-.313-.746v-3.172c.012-.272.13-.53.33-.718a1.081 1.081 0 011.484 0c.2.189.317.446.33.718v3.172a1.044 1.044 0 01-.315.747 1.073 1.073 0 01-.759.309z" fill="#fff"/></svg>