<svg width="64" height="50" fill="none" xmlns="http://www.w3.org/2000/svg"><path d="M51.308 34.834H49.69a1.08 1.08 0 01-.728-.326 1.05 1.05 0 010-1.463 1.08 1.08 0 01.728-.325h1.617c1.403.02 2.797-.237 4.1-.753a10.61 10.61 0 003.486-2.255c1-.972 1.794-2.13 2.335-3.407a10.32 10.32 0 000-8.062 10.44 10.44 0 00-2.335-3.407c-1-.972-2.184-1.738-3.487-2.254a10.729 10.729 0 00-4.1-.754 10.598 10.598 0 00-4.938 1.21 1.084 1.084 0 01-1.34-.276 1.05 1.05 0 01-.21-.438 12.901 12.901 0 00-4.578-7.341A13.228 13.228 0 0032 2.11c-3 0-5.908 1.014-8.241 2.873a12.901 12.901 0 00-4.579 7.341 1.049 1.049 0 01-.594.738 1.085 1.085 0 01-.955-.024 10.598 10.598 0 00-4.939-1.21 10.729 10.729 0 00-4.1.754 10.609 10.609 0 00-3.486 2.254 10.44 10.44 0 00-2.335 3.407 10.32 10.32 0 000 8.062 10.439 10.439 0 002.335 3.407 10.61 10.61 0 003.487 2.255c1.302.516 2.696.772 4.1.753h.951a1.087 1.087 0 01.789.293 1.059 1.059 0 01.33.764 1.044 1.044 0 01-.33.764 1.074 1.074 0 01-.789.293h-.952a12.88 12.88 0 01-5.412-1.209 12.705 12.705 0 01-4.377-3.364 12.485 12.485 0 01-2.51-4.88 12.379 12.379 0 01-.164-5.469 12.462 12.462 0 012.211-5.018 12.676 12.676 0 014.167-3.614 12.894 12.894 0 0110.811-.664 15.048 15.048 0 015.52-7.675A15.403 15.403 0 0132 0c3.262 0 6.438 1.03 9.063 2.941a15.05 15.05 0 015.518 7.674 12.893 12.893 0 0110.812.665 12.675 12.675 0 014.166 3.614 12.46 12.46 0 012.212 5.018c.353 1.813.297 3.68-.165 5.47a12.486 12.486 0 01-2.509 4.88 12.706 12.706 0 01-4.377 3.363 12.88 12.88 0 01-5.412 1.209z" fill="#32FFFF"/><path d="M22.401 12.492c-.122 0-.243-.021-.357-.062a1.073 1.073 0 01-.611-.54 1.043 1.043 0 01-.042-.809c.78-2.16 2.218-4.03 4.117-5.352a11.385 11.385 0 016.493-2.037c.276.012.537.129.729.326a1.05 1.05 0 010 1.463 1.08 1.08 0 01-.729.325 9.217 9.217 0 00-5.255 1.647 9.014 9.014 0 00-3.334 4.33 1.06 1.06 0 01-.391.513 1.083 1.083 0 01-.62.196z" fill="#32FFFF"/><path d="M31.948 20c4.021 0 7.835 1.546 10.619 4.433C45.35 27.217 47 31.031 47 34.949c0 4.02-1.65 7.834-4.433 10.618C39.783 48.35 35.969 50 31.948 50c-4.123 0-7.835-1.753-10.515-4.433C18.649 42.887 17 39.072 17 34.949c0-4.124 1.65-7.836 4.433-10.516C24.113 21.649 27.825 20 31.948 20zm3.402 1.959c1.444 1.546 2.68 3.505 3.506 5.567a18.277 18.277 0 003.195-1.547c-1.752-1.958-4.123-3.402-6.7-4.02zm7.63 5.258c-1.135.618-2.372 1.237-3.609 1.649.619 1.959.928 4.02.928 6.083h5.155c0-2.784-.825-5.464-2.475-7.732zm2.37 9.175H40.3c-.206 1.958-.619 4.02-1.34 5.876 1.134.412 2.268.825 3.299 1.443 1.752-2.061 2.886-4.639 3.092-7.32zm-4.123 8.453c-.928-.515-1.959-.928-2.887-1.237-.825 1.65-1.752 3.093-2.99 4.433 2.166-.515 4.227-1.65 5.877-3.196zm-8.454 3.609c1.65-1.547 2.99-3.3 3.918-5.258-1.237-.31-2.578-.516-3.918-.516v5.774zm-1.546-5.774c-1.34 0-2.68.207-4.02.516a19.823 19.823 0 004.02 5.258V42.68zm1.546-1.546c1.547.103 3.093.31 4.536.722a16.83 16.83 0 001.237-5.464h-5.773v4.742zm-1.546-4.742H25.35a24.703 24.703 0 001.238 5.464c1.546-.413 3.092-.619 4.639-.722v-4.742zm1.546-1.444h5.877c0-1.855-.31-3.814-.825-5.567-1.65.413-3.402.722-5.052.722v4.846zm-1.546-4.845c-1.753 0-3.402-.31-5.052-.722-.618 1.753-.825 3.712-.825 5.568h5.877v-4.846zm1.546-1.443c1.444 0 2.99-.31 4.536-.619-1.03-2.474-2.577-4.742-4.536-6.495v7.114zm-1.546-7.114c-1.959 1.753-3.505 4.021-4.536 6.495 1.443.31 2.99.619 4.536.619v-7.114zm-6.083 5.98c.825-2.062 1.96-4.02 3.506-5.567-2.578.618-4.949 2.062-6.701 4.02.927.619 2.061 1.134 3.195 1.547zm-1.443 7.423c0-2.062.31-4.124.928-6.083-1.34-.412-2.474-1.03-3.608-1.65-1.65 2.165-2.475 4.846-2.578 7.733h5.258zm1.34 7.319c-.721-1.856-1.237-3.918-1.34-5.876h-5.155c.31 2.783 1.444 5.36 3.196 7.32 1.031-.62 2.165-1.032 3.3-1.444zm3.608 5.773c-1.237-1.34-2.268-2.783-2.99-4.433-1.03.31-1.958.722-2.886 1.237 1.65 1.547 3.608 2.68 5.877 3.196z" fill="#fff"/></svg>