<svg width="64" height="50" fill="none" xmlns="http://www.w3.org/2000/svg"><path d="M51.308 34.834H49.69a1.08 1.08 0 01-.728-.326 1.05 1.05 0 010-1.463 1.08 1.08 0 01.728-.325h1.617c1.403.02 2.797-.237 4.1-.753a10.61 10.61 0 003.486-2.255c1-.972 1.794-2.13 2.335-3.407a10.32 10.32 0 000-8.062 10.44 10.44 0 00-2.335-3.407c-1-.972-2.184-1.738-3.487-2.254a10.729 10.729 0 00-4.1-.754 10.598 10.598 0 00-4.938 1.21 1.084 1.084 0 01-1.34-.276 1.05 1.05 0 01-.21-.438 12.901 12.901 0 00-4.578-7.341A13.228 13.228 0 0032 2.11c-3 0-5.908 1.014-8.241 2.873a12.901 12.901 0 00-4.579 7.341 1.049 1.049 0 01-.594.738 1.085 1.085 0 01-.955-.024 10.598 10.598 0 00-4.939-1.21 10.729 10.729 0 00-4.1.754 10.609 10.609 0 00-3.486 2.254 10.44 10.44 0 00-2.335 3.407 10.32 10.32 0 000 8.062 10.439 10.439 0 002.335 3.407 10.61 10.61 0 003.487 2.255c1.302.516 2.696.772 4.1.753h.951a1.087 1.087 0 01.789.293 1.059 1.059 0 01.33.764 1.044 1.044 0 01-.33.764 1.074 1.074 0 01-.789.293h-.952a12.88 12.88 0 01-5.412-1.209 12.705 12.705 0 01-4.377-3.364 12.485 12.485 0 01-2.51-4.88 12.379 12.379 0 01-.164-5.469 12.462 12.462 0 012.211-5.018 12.676 12.676 0 014.167-3.614 12.894 12.894 0 0110.811-.664 15.048 15.048 0 015.52-7.675A15.403 15.403 0 0132 0c3.262 0 6.438 1.03 9.063 2.941a15.05 15.05 0 015.518 7.674 12.893 12.893 0 0110.812.665 12.675 12.675 0 014.166 3.614 12.46 12.46 0 012.212 5.018c.353 1.813.297 3.68-.165 5.47a12.486 12.486 0 01-2.509 4.88 12.706 12.706 0 01-4.377 3.363 12.88 12.88 0 01-5.412 1.209z" fill="#32FFFF"/><path d="M22.401 12.492c-.122 0-.243-.021-.357-.062a1.073 1.073 0 01-.611-.54 1.043 1.043 0 01-.042-.809c.78-2.16 2.218-4.03 4.117-5.352a11.385 11.385 0 016.493-2.037c.276.012.537.129.729.326a1.05 1.05 0 010 1.463 1.08 1.08 0 01-.729.325 9.217 9.217 0 00-5.255 1.647 9.014 9.014 0 00-3.334 4.33 1.06 1.06 0 01-.391.513 1.083 1.083 0 01-.62.196z" fill="#32FFFF"/><path d="M36.6 45.4v1.392a2.324 2.324 0 01-2.308 2.308h-4.584a2.176 2.176 0 01-1.543-.642c-.42-.423-.765-1.119-.765-2.198v-.86h9.2zM36.89 40.85c.422-1.341 1.296-2.537 2.491-3.474 2.885-2.288 4.552-5.695 4.552-9.376 0-3.616-1.6-6.989-4.415-9.274L36.89 40.85zm0 0h-9.806c-.393-1.345-1.18-2.513-2.262-3.321-3.716-2.814-5.456-7.413-4.499-12.06.936-4.509 4.605-8.193 9.11-9.128h.005c3.604-.77 7.286.12 10.08 2.384L36.89 40.85zm-.29-13.308a2.285 2.285 0 002.275 2.275 2.285 2.285 0 002.275-2.275c0-4.787-3.905-8.692-8.692-8.692a2.285 2.285 0 00-2.275 2.275 2.285 2.285 0 002.275 2.275 4.139 4.139 0 014.142 4.142z" stroke="#fff" stroke-width="1.8"/><path d="M26.372 41.75h.128c-.037 0-.092 0-.128.018v-.018zM37.592 41.75v.018c-.037-.018-.055-.018-.092-.018h.092z" fill="#000"/></svg>