<svg width="64" height="50" fill="none" xmlns="http://www.w3.org/2000/svg"><path d="M40.553 50H24.447a2.408 2.408 0 01-1.745-.804A2.756 2.756 0 0122 47.31V16.691a2.756 2.756 0 01.702-1.887A2.408 2.408 0 0124.447 14h16.106c.659.01 1.286.3 1.745.804.458.505.71 1.183.702 1.887v30.618a2.756 2.756 0 01-.702 1.887 2.408 2.408 0 01-1.745.804zM24.447 15.85a.734.734 0 00-.517.264.838.838 0 00-.193.577v30.618c-.01.212.06.42.193.577a.734.734 0 00.517.264h16.106a.734.734 0 00.517-.264.838.838 0 00.193-.577V16.691a.838.838 0 00-.193-.576.734.734 0 00-.517-.265H24.447z" fill="#fff"/><path d="M42.133 44H22.865a.835.835 0 01-.612-.272.966.966 0 01-.253-.658V20.931a.99.99 0 01.065-.356.937.937 0 01.188-.302.866.866 0 01.28-.202.814.814 0 01.332-.071h19.268c.23 0 .45.098.613.273a.968.968 0 01.254.658v22.14a.99.99 0 01-.066.356.938.938 0 01-.188.301.864.864 0 01-.281.202.812.812 0 01-.332.07zm-18.4-1.86h17.536V21.86H23.73l.002 20.28zM35.047 19H30.04a.993.993 0 01-.959-.607 1.003 1.003 0 01.565-1.329.994.994 0 01.394-.063h5.008A.994.994 0 0136 18a1.002 1.002 0 01-.953 1z" fill="#fff"/><path d="M26.999 30a.995.995 0 01-.706-.295 1.013 1.013 0 01-.293-.713v-3.026c.011-.26.121-.506.308-.686a.996.996 0 011.384 0c.187.18.297.426.308.686v3.028a1.014 1.014 0 01-.619.93A.993.993 0 0127 30zM26.999 40a1.004 1.004 0 01-.923-.613.983.983 0 01-.075-.38v-2.972a.986.986 0 01.606-.955 1.006 1.006 0 011.329.563c.047.125.069.258.063.392v2.973a.988.988 0 01-.293.701c-.187.186-.442.291-.707.291z" fill="#fff"/><path d="M50.462 38.604h-4.805a1.06 1.06 0 01-1.024-.648 1.072 1.072 0 01.603-1.417 1.06 1.06 0 01.42-.068h4.806a11.39 11.39 0 007.717-3.065 11.486 11.486 0 001.2-15.474 11.405 11.405 0 00-7.15-4.227 1.063 1.063 0 01-.861-.768 9.91 9.91 0 00-2.243-4.057 9.86 9.86 0 00-3.838-2.585 9.827 9.827 0 00-8.923 1.066 1.06 1.06 0 01-1.468-.277 11.394 11.394 0 00-6.116-4.506 11.352 11.352 0 00-7.579.349 11.405 11.405 0 00-5.68 5.048 11.472 11.472 0 00-1.262 7.508 1.071 1.071 0 01-.681 1.177 1.06 1.06 0 01-.482.06 9.835 9.835 0 00-7.474 2.276 9.9 9.9 0 00-2.464 3.147 9.936 9.936 0 001.664 11.23 9.839 9.839 0 007.175 3.098h7.13a1.06 1.06 0 011.024.647 1.07 1.07 0 01-.603 1.418 1.06 1.06 0 01-.421.068h-7.13a11.974 11.974 0 01-8.483-3.527A12.064 12.064 0 010 26.562c0-3.193 1.264-6.256 3.514-8.514a11.974 11.974 0 018.482-3.527 13.622 13.622 0 012.454-8.779A13.542 13.542 0 0120.997.775a13.488 13.488 0 018.201-.259 13.533 13.533 0 016.844 4.544 11.956 11.956 0 0114.473 2.19 12.042 12.042 0 012.702 4.467 13.53 13.53 0 018.17 5.277 13.622 13.622 0 01-1.854 18.111 13.506 13.506 0 01-9.07 3.499z" fill="#32FFFF"/><path d="M17.195 14.923a1.057 1.057 0 01-.983-.657 1.07 1.07 0 01-.08-.408 9.4 9.4 0 012.736-6.624 9.33 9.33 0 016.599-2.749 1.06 1.06 0 011.024.648 1.07 1.07 0 01-.604 1.417 1.06 1.06 0 01-.42.068 7.207 7.207 0 00-5.094 2.123 7.262 7.262 0 00-2.115 5.113 1.07 1.07 0 01-.656.988c-.129.054-.268.081-.407.08z" fill="#32FFFF"/></svg>