<svg width="64" height="50" fill="none" xmlns="http://www.w3.org/2000/svg"><path d="M50.462 38.604h-4.805a1.06 1.06 0 01-1.024-.648 1.072 1.072 0 01.603-1.417 1.06 1.06 0 01.42-.068h4.806a11.39 11.39 0 007.717-3.065 11.486 11.486 0 001.2-15.474 11.405 11.405 0 00-7.15-4.227 1.063 1.063 0 01-.861-.768 9.91 9.91 0 00-2.243-4.057 9.86 9.86 0 00-3.838-2.585 9.827 9.827 0 00-8.923 1.066 1.06 1.06 0 01-1.468-.277 11.394 11.394 0 00-6.116-4.506 11.352 11.352 0 00-7.579.349 11.405 11.405 0 00-5.68 5.048 11.472 11.472 0 00-1.262 7.508 1.071 1.071 0 01-.681 1.177 1.06 1.06 0 01-.482.06 9.835 9.835 0 00-7.474 2.276 9.9 9.9 0 00-2.464 3.147 9.936 9.936 0 001.664 11.23 9.839 9.839 0 007.175 3.098h7.13a1.06 1.06 0 011.024.647 1.07 1.07 0 01-.603 1.418 1.06 1.06 0 01-.421.068h-7.13a11.974 11.974 0 01-8.483-3.527A12.064 12.064 0 010 26.562c0-3.193 1.264-6.256 3.514-8.514a11.974 11.974 0 018.482-3.527 13.622 13.622 0 012.454-8.779A13.542 13.542 0 0120.997.775a13.488 13.488 0 018.201-.259 13.533 13.533 0 016.844 4.544 11.956 11.956 0 0114.473 2.19 12.042 12.042 0 012.702 4.467 13.53 13.53 0 018.17 5.277 13.622 13.622 0 01-1.854 18.111 13.506 13.506 0 01-9.07 3.499z" fill="#32FFFF"/><path d="M16.46 32.188c-.738 0-1.46-.22-2.073-.631a3.758 3.758 0 01-.565-5.761 3.726 3.726 0 014.065-.812 3.734 3.734 0 011.674 1.38 3.755 3.755 0 01-.465 4.726 3.728 3.728 0 01-2.636 1.098zm0-5.355a1.598 1.598 0 00-1.48.993 1.614 1.614 0 00.347 1.752 1.6 1.6 0 002.735-1.136 1.61 1.61 0 00-.47-1.137 1.599 1.599 0 00-1.132-.471zM27.607 22.33a3.72 3.72 0 01-2.073-.632 3.742 3.742 0 01-1.374-1.68 3.758 3.758 0 01.81-4.08 3.726 3.726 0 014.065-.813 3.733 3.733 0 011.674 1.38 3.755 3.755 0 01-.465 4.727 3.725 3.725 0 01-2.637 1.097zm0-5.355a1.597 1.597 0 00-1.48.992 1.613 1.613 0 00.347 1.753 1.6 1.6 0 002.735-1.137c0-.427-.169-.836-.47-1.137a1.6 1.6 0 00-1.132-.471zM39.54 21.282a3.72 3.72 0 01-2.073-.63 3.758 3.758 0 01-.565-5.761 3.726 3.726 0 014.065-.813 3.733 3.733 0 011.674 1.38 3.755 3.755 0 01-.465 4.726 3.727 3.727 0 01-2.636 1.098zm0-5.356a1.598 1.598 0 00-1.48.992 1.614 1.614 0 00.347 1.753 1.6 1.6 0 002.735-1.137c0-.427-.17-.836-.47-1.137-.3-.302-.708-.471-1.132-.471zM47.545 34.051a3.72 3.72 0 01-2.073-.63 3.742 3.742 0 01-1.374-1.681 3.758 3.758 0 01.81-4.081 3.726 3.726 0 014.064-.812 3.733 3.733 0 011.675 1.38 3.755 3.755 0 01-.465 4.726 3.727 3.727 0 01-2.637 1.098zm0-5.356a1.598 1.598 0 00-1.48.992 1.614 1.614 0 00.347 1.753 1.6 1.6 0 002.735-1.137c0-.427-.169-.836-.47-1.137a1.6 1.6 0 00-1.132-.471z" fill="#fff"/><path d="M23.302 50a1.057 1.057 0 01-.981-.659 1.068 1.068 0 01-.08-.408V29.51h-3.114a1.061 1.061 0 01-1.017-1.066 1.069 1.069 0 011.017-1.067h4.175a1.06 1.06 0 011.063 1.066v20.489a1.072 1.072 0 01-.656.986 1.06 1.06 0 01-.407.081zM27.607 35.32a1.06 1.06 0 01-1.061-1.066v-2.667a1.07 1.07 0 011.062-1.02 1.061 1.061 0 011.062 1.02v2.667a1.07 1.07 0 01-.656.985 1.06 1.06 0 01-.407.08zM27.607 43.33a1.06 1.06 0 01-1.061-1.066v-4.006a1.07 1.07 0 011.062-1.02 1.061 1.061 0 011.062 1.02v4.006a1.07 1.07 0 01-.656.985 1.06 1.06 0 01-.407.08zM27.607 50a1.061 1.061 0 01-1.061-1.067v-2.666a1.07 1.07 0 011.062-1.02 1.061 1.061 0 011.062 1.02v2.666A1.07 1.07 0 0127.607 50z" fill="#fff"/><path d="M27.607 32.654a1.061 1.061 0 01-1.061-1.067V21.264a1.073 1.073 0 01.645-1.028 1.06 1.06 0 011.412.605c.05.135.074.28.067.423v10.323a1.07 1.07 0 01-1.063 1.067zM33.74 50a1.057 1.057 0 01-.98-.66 1.068 1.068 0 01-.08-.407V25.766a1.067 1.067 0 011.06-1.065h4.738v-4.486a1.069 1.069 0 011.062-1.021 1.061 1.061 0 011.063 1.02v5.552a1.07 1.07 0 01-1.064 1.068h-4.735v22.109A1.069 1.069 0 0133.74 50z" fill="#fff"/><path d="M40.468 50a1.061 1.061 0 01-1.063-1.067V30.307a1.068 1.068 0 01.657-.985c.129-.053.267-.08.407-.08h4.405a1.058 1.058 0 011.024.647 1.07 1.07 0 01-.603 1.418c-.135.05-.278.073-.421.067H41.53v17.559a1.068 1.068 0 01-.655.986 1.057 1.057 0 01-.407.081z" fill="#fff"/><path d="M17.195 14.923a1.057 1.057 0 01-.983-.657 1.07 1.07 0 01-.08-.408 9.4 9.4 0 012.736-6.624 9.33 9.33 0 016.599-2.749 1.06 1.06 0 011.024.648 1.07 1.07 0 01-.604 1.417 1.06 1.06 0 01-.42.068 7.207 7.207 0 00-5.094 2.123 7.262 7.262 0 00-2.115 5.113 1.07 1.07 0 01-.656.988c-.129.054-.268.081-.407.08z" fill="#32FFFF"/></svg>