<svg width="64" height="50" fill="none" xmlns="http://www.w3.org/2000/svg"><path d="M34.7 50h-5.401a.906.906 0 01-.906-.906v-2.515c-.701-.218-1.382-.5-2.032-.843l-1.779 1.78a.906.906 0 01-1.28 0l-3.818-3.817a.906.906 0 010-1.28l1.779-1.78c-.343-.65-.625-1.33-.843-2.031h-2.514a.906.906 0 01-.906-.906v-5.4a.906.906 0 01.906-.906h2.514c.218-.703.5-1.383.843-2.034l-1.78-1.78a.906.906 0 010-1.28l3.82-3.818a.902.902 0 011.28 0l1.779 1.78c.65-.343 1.33-.625 2.031-.843v-2.517A.904.904 0 0129.3 20h5.4a.904.904 0 01.904.904v2.517c.703.218 1.383.5 2.034.843l1.779-1.78a.931.931 0 011.28 0l3.817 3.819a.902.902 0 010 1.28l-1.776 1.784c.343.65.625 1.331.843 2.034h2.516a.903.903 0 01.904.906v5.4a.905.905 0 01-.904.906H43.58c-.218.701-.5 1.382-.841 2.032l1.777 1.78a.903.903 0 010 1.28l-3.826 3.81a.906.906 0 01-1.28 0l-1.778-1.779a12.02 12.02 0 01-2.034.843v2.515A.904.904 0 0134.7 50zm-4.497-1.81h3.582v-2.298a.905.905 0 01.683-.88c1-.246 1.958-.643 2.84-1.176a.902.902 0 011.107.134l1.625 1.625 2.538-2.54-1.623-1.623a.905.905 0 01-.135-1.11c.532-.882.929-1.84 1.177-2.84a.904.904 0 01.878-.683h2.296v-3.583h-2.28a.905.905 0 01-.879-.682 10.266 10.266 0 00-1.178-2.843.907.907 0 01.134-1.107l1.626-1.626-2.538-2.539-1.626 1.626a.906.906 0 01-1.107.135 10.252 10.252 0 00-2.84-1.18.903.903 0 01-.682-.878v-2.296h-3.583v2.296a.905.905 0 01-.682.879c-1 .247-1.958.645-2.84 1.179a.906.906 0 01-1.107-.135l-1.626-1.626-2.538 2.539 1.624 1.626a.904.904 0 01.134 1.107c-.532.883-.93 1.841-1.177 2.843a.905.905 0 01-.878.682H18.83V36.8h2.298a.904.904 0 01.878.683c.248 1 .645 1.96 1.177 2.842a.904.904 0 01-.134 1.108l-1.624 1.624 2.538 2.539 1.626-1.625a.902.902 0 011.107-.134c.882.533 1.84.93 2.84 1.177a.904.904 0 01.682.879l-.015 2.298z" fill="#fff"/><path d="M32 43a8 8 0 110-16.001A8 8 0 0132 43zm0-14.265a6.267 6.267 0 100 12.537 6.267 6.267 0 000-12.538v.001z" fill="#fff"/><path d="M51.308 34.834H49.69a1.08 1.08 0 01-.728-.326 1.05 1.05 0 010-1.463 1.08 1.08 0 01.728-.325h1.617c1.403.02 2.797-.237 4.1-.753a10.61 10.61 0 003.486-2.255c1-.972 1.794-2.13 2.335-3.407a10.32 10.32 0 000-8.062 10.44 10.44 0 00-2.335-3.407c-1-.972-2.184-1.738-3.487-2.254a10.729 10.729 0 00-4.1-.754 10.598 10.598 0 00-4.938 1.21 1.084 1.084 0 01-1.34-.276 1.05 1.05 0 01-.21-.438 12.901 12.901 0 00-4.578-7.341A13.228 13.228 0 0032 2.11c-3 0-5.908 1.014-8.241 2.873a12.901 12.901 0 00-4.579 7.341 1.049 1.049 0 01-.594.738 1.085 1.085 0 01-.955-.024 10.598 10.598 0 00-4.939-1.21 10.729 10.729 0 00-4.1.754 10.609 10.609 0 00-3.486 2.254 10.44 10.44 0 00-2.335 3.407 10.32 10.32 0 000 8.062 10.439 10.439 0 002.335 3.407 10.61 10.61 0 003.487 2.255c1.302.516 2.696.772 4.1.753h.951a1.087 1.087 0 01.789.293 1.059 1.059 0 01.33.764 1.044 1.044 0 01-.33.764 1.074 1.074 0 01-.789.293h-.952a12.88 12.88 0 01-5.412-1.209 12.705 12.705 0 01-4.377-3.364 12.485 12.485 0 01-2.51-4.88 12.379 12.379 0 01-.164-5.469 12.462 12.462 0 012.211-5.018 12.676 12.676 0 014.167-3.614 12.894 12.894 0 0110.811-.664 15.048 15.048 0 015.52-7.675A15.403 15.403 0 0132 0c3.262 0 6.438 1.03 9.063 2.941a15.05 15.05 0 015.518 7.674 12.893 12.893 0 0110.812.665 12.675 12.675 0 014.166 3.614 12.46 12.46 0 012.212 5.018c.353 1.813.297 3.68-.165 5.47a12.486 12.486 0 01-2.509 4.88 12.706 12.706 0 01-4.377 3.363 12.88 12.88 0 01-5.412 1.209z" fill="#32FFFF"/><path d="M22.401 12.492c-.122 0-.243-.021-.357-.062a1.073 1.073 0 01-.611-.54 1.043 1.043 0 01-.042-.809c.78-2.16 2.218-4.03 4.117-5.352a11.385 11.385 0 016.493-2.037c.276.012.537.129.729.326a1.05 1.05 0 010 1.463 1.08 1.08 0 01-.729.325 9.217 9.217 0 00-5.255 1.647 9.014 9.014 0 00-3.334 4.33 1.06 1.06 0 01-.391.513 1.083 1.083 0 01-.62.196z" fill="#32FFFF"/></svg>