<svg width="219" height="60" viewBox="0 0 219 60" fill="none" xmlns="http://www.w3.org/2000/svg">
<path d="M19 19.3939H24.7659L27.6489 32.5455L30.987 19.3939H36.146L39.8786 32.6061L42.974 19.3939H48.133L42.6705 40.6061H37.2081L33.4148 26.9091L29.9249 40.6061H24.4624L19 19.3939Z" fill="white"/>
<path d="M50.8642 19.3939H66.3411V23.5758H56.3266V27.7273H65.4307V31.6667H56.3266V36.4242H66.3411V40.6061H50.8642V19.3939Z" fill="white"/>
<path d="M69.831 19.3939H79.9972C82.4856 19.3939 84.2963 19.8889 85.4293 20.8788C86.5622 21.8485 87.1287 23.2424 87.1287 25.0606C87.1287 26.1515 86.8455 27.0909 86.279 27.8788C85.7125 28.6465 84.9437 29.202 83.9726 29.5455C85.227 29.8283 86.2183 30.404 86.9466 31.2727C87.6749 32.1212 88.0391 33.2323 88.0391 34.6061C88.0391 36.4646 87.422 37.9293 86.1879 39C84.9741 40.0707 83.0116 40.6061 80.3007 40.6061H69.831V19.3939ZM79.0868 36.4242C80.4018 36.4242 81.3122 36.2323 81.818 35.8485C82.3238 35.4444 82.5767 34.8283 82.5767 34C82.5767 33.1717 82.3137 32.5556 81.7876 32.1515C81.2819 31.7475 80.3613 31.5455 79.0261 31.5455H75.2934V36.4242H79.0868ZM78.6619 27.8485C79.8353 27.8485 80.6243 27.6667 81.029 27.303C81.4538 26.9192 81.6663 26.3838 81.6663 25.697C81.6663 24.9899 81.4538 24.4646 81.029 24.1212C80.6243 23.7576 79.8454 23.5758 78.6923 23.5758H75.2934V27.8485H78.6619Z" fill="white"/>
<path d="M91.5314 19.3939H96.9938V40.6061H91.5314V19.3939Z" fill="white"/>
<path d="M106.548 23.8788H100.024V19.3939H118.535V23.8788H112.011V40.6061H106.548V23.8788Z" fill="white"/>
<path d="M131.041 36.5455H123.939L122.483 40.6061H117.324L125.062 19.3939H130.525L138.263 40.6061H132.497L131.041 36.5455ZM125.487 32.3636H129.493L127.49 26.0606L125.487 32.3636Z" fill="white"/>
<path d="M143.563 23.8788H137.039V19.3939H155.55V23.8788H149.026V40.6061H143.563V23.8788Z" fill="white"/>
<path d="M167.556 41C166.16 41 164.835 40.798 163.581 40.3939C162.326 39.9899 161.224 39.3535 160.273 38.4848C159.342 37.596 158.604 36.4747 158.058 35.1212C157.511 33.7475 157.238 32.0909 157.238 30.1515V29.5455C157.238 27.6869 157.511 26.0909 158.058 24.7576C158.604 23.4242 159.342 22.3333 160.273 21.4848C161.224 20.6364 162.326 20.0101 163.581 19.6061C164.835 19.202 166.16 19 167.556 19C168.952 19 170.277 19.202 171.532 19.6061C172.786 20.0101 173.878 20.6364 174.809 21.4848C175.76 22.3333 176.508 23.4242 177.055 24.7576C177.601 26.0909 177.874 27.6869 177.874 29.5455V30.1515C177.874 32.0909 177.601 33.7475 177.055 35.1212C176.508 36.4747 175.76 37.596 174.809 38.4848C173.878 39.3535 172.786 39.9899 171.532 40.3939C170.277 40.798 168.952 41 167.556 41ZM167.556 36.4545C168.163 36.4545 168.75 36.3636 169.316 36.1818C169.883 35.9798 170.378 35.6465 170.803 35.1818C171.228 34.697 171.572 34.0505 171.835 33.2424C172.098 32.4343 172.23 31.404 172.23 30.1515V29.5455C172.23 28.3737 172.098 27.404 171.835 26.6364C171.572 25.8485 171.228 25.2323 170.803 24.7879C170.378 24.3232 169.883 24 169.316 23.8182C168.75 23.6364 168.163 23.5455 167.556 23.5455C166.949 23.5455 166.363 23.6364 165.796 23.8182C165.23 24 164.734 24.3232 164.309 24.7879C163.884 25.2323 163.54 25.8485 163.277 26.6364C163.014 27.404 162.883 28.3737 162.883 29.5455V30.1515C162.883 31.404 163.014 32.4343 163.277 33.2424C163.54 34.0505 163.884 34.697 164.309 35.1818C164.734 35.6465 165.23 35.9798 165.796 36.1818C166.363 36.3636 166.949 36.4545 167.556 36.4545Z" fill="white"/>
<path d="M181.35 19.3939H190.606C193.256 19.3939 195.259 20.0303 196.614 21.303C197.97 22.5758 198.647 24.303 198.647 26.4848C198.647 28 198.283 29.303 197.555 30.3939C196.847 31.4646 195.775 32.2525 194.338 32.7576L199.254 40.6061H193.185L189.058 33.3333H186.812V40.6061H181.35V19.3939ZM189.392 29.0909C190.848 29.0909 191.84 28.8788 192.366 28.4545C192.912 28.0101 193.185 27.3535 193.185 26.4848C193.185 25.6162 192.912 24.9697 192.366 24.5455C191.84 24.101 190.848 23.8788 189.392 23.8788H186.812V29.0909H189.392Z" fill="white"/>
<path d="M210.048 41C207.074 41 204.848 40.4242 203.371 39.2727C201.915 38.1212 201.156 36.5455 201.095 34.5455H206.558C206.72 35.3131 207.074 35.8788 207.62 36.2424C208.166 36.5859 208.975 36.7576 210.048 36.7576C212.374 36.7576 213.538 36.1111 213.538 34.8182C213.538 34.3939 213.426 34.0505 213.204 33.7879C212.981 33.505 212.658 33.2626 212.233 33.0606C211.808 32.8384 211.282 32.6465 210.655 32.4848C210.027 32.3232 209.299 32.1515 208.47 31.9697C207.418 31.7273 206.467 31.4444 205.617 31.1212C204.788 30.7778 204.079 30.3434 203.493 29.8182C202.926 29.2929 202.481 28.6667 202.158 27.9394C201.854 27.1919 201.702 26.303 201.702 25.2727C201.702 24.2828 201.894 23.404 202.279 22.6364C202.663 21.8485 203.22 21.1919 203.948 20.6667C204.676 20.1212 205.556 19.7071 206.588 19.4242C207.62 19.1414 208.773 19 210.048 19C212.84 19 214.913 19.5354 216.269 20.6061C217.645 21.6768 218.403 23.1919 218.545 25.1515H213.082C212.961 24.5051 212.668 24.0303 212.202 23.7273C211.737 23.404 211.019 23.2424 210.048 23.2424C208.975 23.2424 208.227 23.4141 207.802 23.7576C207.377 24.101 207.165 24.5455 207.165 25.0909C207.165 25.8384 207.549 26.3838 208.318 26.7273C209.107 27.0707 210.24 27.3838 211.717 27.6667C212.809 27.8889 213.801 28.1616 214.691 28.4848C215.601 28.7879 216.37 29.202 216.997 29.7273C217.645 30.2323 218.14 30.8586 218.484 31.6061C218.828 32.3333 219 33.2323 219 34.303C219 36.404 218.211 38.0505 216.633 39.2424C215.055 40.4141 212.86 41 210.048 41Z" fill="white"/>
<path fill-rule="evenodd" clip-rule="evenodd" d="M54.31 47.8911L57.4195 42.5H42.455C40.8298 44.1175 38.8968 45.4111 36.7576 46.2973C33.5316 47.6338 29.9817 47.9838 26.5568 47.303C23.1318 46.6223 19.9857 44.9414 17.5163 42.4729C15.0469 40.0044 13.3651 36.8592 12.6837 33.435C12.0022 30.0109 12.3517 26.4616 13.6878 23.236C15.024 20.0105 17.2869 17.2535 20.1903 15.3138C23.0937 13.3741 26.5073 12.3388 29.9993 12.3388C32.2685 12.339 34.4927 12.7759 36.5594 13.603L46.8679 12.6465C46.4923 12.2829 46.105 11.9314 45.7064 11.5926L47.9066 5.69631L42.0852 2.3415L38.0834 7.19015C36.8809 6.76255 35.646 6.43217 34.3906 6.20221L33.3458 0H26.6289L25.584 6.20221C24.3286 6.43217 23.0937 6.76255 21.8912 7.19015L17.9073 2.34001L12.0934 5.69481L14.2936 11.5926C13.325 12.4159 12.4227 13.3141 11.5949 14.2788L5.69744 12.0776L2.34047 17.8978L7.19009 21.9003C6.7631 23.1022 6.43267 24.3363 6.20196 25.5908L0 26.6355V33.3511L6.20196 34.3957C6.43267 35.6502 6.7631 36.8843 7.19009 38.0863L2.34047 42.0888L5.69744 47.909L11.5949 45.7077C12.4221 46.6771 13.3245 47.5798 14.2936 48.4074L12.0934 54.3037L17.9073 57.6585L21.9091 52.8098C23.1118 53.2368 24.3467 53.5671 25.6019 53.7978L26.6468 60H33.3637L34.4085 53.7978C35.6638 53.5671 36.8986 53.2368 38.1013 52.8098L42.1031 57.6585L47.9245 54.3037L45.7243 48.4074C46.6934 47.5798 47.5958 46.6771 48.423 45.7077L54.31 47.8911Z" fill="#3168F5"/>
</svg>
